
<svg width="24" height="24" xmlns="http://www.w3.org/2000/svg">

 <title/>
 <g>
  <title>background</title>
  <rect fill="none" id="canvas_background" height="26" width="26" y="-1" x="-1"/>
 </g>
 <g>
  <title>Layer 1</title>
  <path filter="url(#svg_3_blur)" fill="#231f20" id="svg_1" d="m12.497669,4.24792l9.87,9.88a1,1 0 0 1 -1.41,1.41l-9.06,-9.06l-8.8,8.8a1,1 0 0 1 -1.41,0l0,0a1,1 0 0 1 0,-1.42l9.61,-9.61a0.85,0.85 0 0 1 1.2,0z" class="cls-1"/>
  <path filter="url(#svg_3_blur)" fill="#231f20" id="svg_4" d="m12.497669,8.247919l9.87,9.88a1,1 0 0 1 -1.41,1.41l-9.06,-9.06l-8.8,8.8a1,1 0 0 1 -1.41,0l0,0a1,1 0 0 1 0,-1.42l9.61,-9.61a0.85,0.85 0 0 1 1.2,0z" class="cls-1"/>
 </g>
</svg>