<svg width="24" height="24" xmlns="http://www.w3.org/2000/svg">

 <title/>
 <g>
  <title>background</title>
  <rect fill="none" id="canvas_background" height="26" width="26" y="-1" x="-1"/>
 </g>
 <g>
  <title>Layer 1</title>
  <g id="svg_5">
   <path stroke="null" fill="#231f20" id="svg_2" d="m12.866247,1.875967l7.338381,9.88a0.743504,1 0 0 1 -1.04834,1.41l-6.736143,-9.06l-6.542832,8.8a0.743504,1 0 0 1 -1.04834,0l0,0a0.743504,1 0 0 1 0,-1.41l7.14507,-9.62a0.631978,0.85 0 0 1 0.892204,0z" class="cls-1"/>
   <path stroke="null" fill="#231f20" id="svg_3" d="m12.866243,6.320405l7.33838,9.88a0.7435,1 0 0 1 -1.04834,1.41l-6.73614,-9.06l-6.54283,8.8a0.7435,1 0 0 1 -1.04835,0l0,0a0.7435,1 0 0 1 0,-1.41l7.14508,-9.62a0.63198,0.85 0 0 1 0.8922,0z" class="cls-1"/>
   <path stroke="null" fill="#231f20" id="svg_4" d="m12.866245,10.841478l7.33838,9.88a0.7435,1 0 0 1 -1.04834,1.41l-6.73614,-9.06l-6.54284,8.8a0.7435,1 0 0 1 -1.04834,0l0,0a0.7435,1 0 0 1 0,-1.41l7.14507,-9.62a0.63198,0.85 0 0 1 0.89221,0z" class="cls-1"/>
  </g>
 </g>
</svg>